<?xml version="1.0" encoding="utf-8"?>
<!-- Generator: Adobe Illustrator 16.0.0, SVG Export Plug-In . SVG Version: 6.00 Build 0)  -->
<!DOCTYPE svg PUBLIC "-//W3C//DTD SVG 1.1//EN" "http://www.w3.org/Graphics/SVG/1.1/DTD/svg11.dtd">
<svg version="1.1" xmlns="http://www.w3.org/2000/svg" xmlns:xlink="http://www.w3.org/1999/xlink" x="0px" y="0px" width="100px"
	 height="100px" viewBox="0 0 100 100" enable-background="new 0 0 100 100" xml:space="preserve">
<g id="Layer_1">
	<g>
		<path fill="#FFFFFF" d="M97.5,87.501c0,5.5-4.5,10-10,10h-75c-5.5,0-10-4.5-10-10V12.5c0-5.5,4.5-10,10-10h75c5.5,0,10,4.5,10,10
			V87.501z"/>
		<path fill="none" stroke="#000000" stroke-width="5" stroke-miterlimit="10" d="M97.5,87.501c0,5.5-4.5,10-10,10h-75
			c-5.5,0-10-4.5-10-10V12.5c0-5.5,4.5-10,10-10h75c5.5,0,10,4.5,10,10V87.501z"/>
	</g>
</g>
<g id="Layer_2">
	<g>
		<path d="M49.916,76.246c-3.639,0-6.683-0.674-9.13-2.021c-2.448-1.348-4.408-3.201-5.879-5.561
			c-1.472-2.357-2.522-5.121-3.15-8.287c-0.629-3.168-0.943-6.57-0.943-10.208c0-3.886,0.426-7.519,1.28-10.899
			c0.854-3.38,1.999-6.092,3.437-8.136c1.437-2.043,3.251-3.785,5.441-5.222c2.189-1.437,5.193-2.156,9.012-2.156
			c3.617,0,6.625,0.573,9.029,1.718c2.404,1.146,4.386,2.903,5.947,5.273c1.561,2.37,2.656,5.228,3.285,8.574
			c0.628,3.347,0.943,6.896,0.943,10.646c0,3.661-0.315,7.086-0.943,10.276c-0.629,3.189-1.691,5.969-3.185,8.338
			c-1.493,2.371-3.476,4.24-5.946,5.609C56.643,75.561,53.576,76.246,49.916,76.246z M49.916,70.248c2.627,0,4.745-0.533,6.351-1.6
			c1.605-1.066,2.818-2.521,3.639-4.363c0.819-1.842,1.432-3.992,1.836-6.451c0.404-2.461,0.606-5.082,0.606-7.868
			c0-2.673-0.157-5.239-0.472-7.698c-0.315-2.46-0.921-4.633-1.819-6.52s-2.156-3.391-3.773-4.515
			c-1.617-1.123-3.718-1.685-6.3-1.685c-2.673,0-4.784,0.562-6.334,1.685c-1.55,1.124-2.707,2.477-3.47,4.06
			c-0.764,1.584-1.364,3.757-1.803,6.52c-0.438,2.763-0.657,5.48-0.657,8.153c0,2.786,0.14,5.407,0.421,7.868
			c0.28,2.459,0.853,4.609,1.718,6.451s2.1,3.297,3.706,4.363S47.288,70.248,49.916,70.248z"/>
	</g>
</g>
</svg>
