<?xml version="1.0" encoding="utf-8"?>
<!-- Generator: Adobe Illustrator 16.0.0, SVG Export Plug-In . SVG Version: 6.00 Build 0)  -->
<!DOCTYPE svg PUBLIC "-//W3C//DTD SVG 1.1//EN" "http://www.w3.org/Graphics/SVG/1.1/DTD/svg11.dtd">
<svg version="1.1" xmlns="http://www.w3.org/2000/svg" xmlns:xlink="http://www.w3.org/1999/xlink" x="0px" y="0px" width="100px"
	 height="100px" viewBox="0 0 100 100" enable-background="new 0 0 100 100" xml:space="preserve">
<g id="Layer_1">
	<g>
		<path fill="#FFFFFF" d="M97.5,87.501c0,5.5-4.5,10-10,10h-75c-5.5,0-10-4.5-10-10V12.5c0-5.5,4.5-10,10-10h75c5.5,0,10,4.5,10,10
			V87.501z"/>
		<path fill="none" stroke="#000000" stroke-width="5" stroke-miterlimit="10" d="M97.5,87.501c0,5.5-4.5,10-10,10h-75
			c-5.5,0-10-4.5-10-10V12.5c0-5.5,4.5-10,10-10h75c5.5,0,10,4.5,10,10V87.501z"/>
	</g>
</g>
<g id="Layer_2">
	<line fill="none" stroke="#000000" stroke-width="5" stroke-miterlimit="10" x1="50" y1="23.5" x2="50" y2="76.5"/>
</g>
</svg>
